<mxfile host="app.diagrams.net" modified="2023-10-15T17:46:28.217Z" agent="Mozilla/5.0 (Windows NT 10.0; Win64; x64; rv:109.0) Gecko/20100101 Firefox/118.0" etag="fe-yJd9GfYjFO0u_izBH" version="22.0.4" type="device">
  <diagram name="Page-1" id="cF1kt7CdDfD7vXwSGcM8">
    <mxGraphModel dx="2933" dy="2667" grid="1" gridSize="10" guides="1" tooltips="1" connect="1" arrows="1" fold="1" page="1" pageScale="1" pageWidth="850" pageHeight="1100" math="0" shadow="0">
      <root>
        <mxCell id="0" />
        <mxCell id="1" parent="0" />
        <mxCell id="GzDTUK1ZSudhXo1Uk-pZ-34" value="" style="rounded=0;whiteSpace=wrap;html=1;fillColor=#d80073;fontColor=#ffffff;strokeColor=#A50040;" vertex="1" parent="1">
          <mxGeometry x="380" y="30" width="570" height="750" as="geometry" />
        </mxCell>
        <mxCell id="GzDTUK1ZSudhXo1Uk-pZ-1" value="MS1 : User" style="whiteSpace=wrap;html=1;aspect=fixed;fillColor=#f8cecc;strokeColor=#b85450;" vertex="1" parent="1">
          <mxGeometry x="410" y="60" width="140" height="140" as="geometry" />
        </mxCell>
        <mxCell id="GzDTUK1ZSudhXo1Uk-pZ-20" style="edgeStyle=orthogonalEdgeStyle;rounded=0;orthogonalLoop=1;jettySize=auto;html=1;" edge="1" parent="1" source="GzDTUK1ZSudhXo1Uk-pZ-2" target="GzDTUK1ZSudhXo1Uk-pZ-3">
          <mxGeometry relative="1" as="geometry">
            <mxPoint x="460" y="590" as="targetPoint" />
            <Array as="points" />
          </mxGeometry>
        </mxCell>
        <mxCell id="GzDTUK1ZSudhXo1Uk-pZ-2" value="Books" style="whiteSpace=wrap;html=1;aspect=fixed;fillColor=#d5e8d4;strokeColor=#82b366;" vertex="1" parent="1">
          <mxGeometry x="410" y="280" width="140" height="140" as="geometry" />
        </mxCell>
        <mxCell id="GzDTUK1ZSudhXo1Uk-pZ-21" style="edgeStyle=orthogonalEdgeStyle;rounded=0;orthogonalLoop=1;jettySize=auto;html=1;entryX=0.75;entryY=1;entryDx=0;entryDy=0;" edge="1" parent="1" source="GzDTUK1ZSudhXo1Uk-pZ-3" target="GzDTUK1ZSudhXo1Uk-pZ-2">
          <mxGeometry relative="1" as="geometry">
            <Array as="points">
              <mxPoint x="515" y="550" />
              <mxPoint x="515" y="550" />
            </Array>
          </mxGeometry>
        </mxCell>
        <mxCell id="GzDTUK1ZSudhXo1Uk-pZ-23" style="edgeStyle=orthogonalEdgeStyle;rounded=0;orthogonalLoop=1;jettySize=auto;html=1;entryX=0.75;entryY=1;entryDx=0;entryDy=0;" edge="1" parent="1" source="GzDTUK1ZSudhXo1Uk-pZ-3" target="GzDTUK1ZSudhXo1Uk-pZ-4">
          <mxGeometry relative="1" as="geometry" />
        </mxCell>
        <mxCell id="GzDTUK1ZSudhXo1Uk-pZ-3" value="Reviews" style="whiteSpace=wrap;html=1;aspect=fixed;fillColor=#e1d5e7;strokeColor=#9673a6;" vertex="1" parent="1">
          <mxGeometry x="410" y="600" width="140" height="140" as="geometry" />
        </mxCell>
        <mxCell id="GzDTUK1ZSudhXo1Uk-pZ-6" style="edgeStyle=orthogonalEdgeStyle;rounded=0;orthogonalLoop=1;jettySize=auto;html=1;entryX=0;entryY=0.5;entryDx=0;entryDy=0;" edge="1" parent="1" source="GzDTUK1ZSudhXo1Uk-pZ-4" target="GzDTUK1ZSudhXo1Uk-pZ-1">
          <mxGeometry relative="1" as="geometry">
            <Array as="points">
              <mxPoint x="150" y="130" />
            </Array>
          </mxGeometry>
        </mxCell>
        <mxCell id="GzDTUK1ZSudhXo1Uk-pZ-10" style="edgeStyle=orthogonalEdgeStyle;rounded=0;orthogonalLoop=1;jettySize=auto;html=1;entryX=0;entryY=0.5;entryDx=0;entryDy=0;" edge="1" parent="1" source="GzDTUK1ZSudhXo1Uk-pZ-4" target="GzDTUK1ZSudhXo1Uk-pZ-2">
          <mxGeometry relative="1" as="geometry" />
        </mxCell>
        <mxCell id="GzDTUK1ZSudhXo1Uk-pZ-4" value="FrontEnd(React)" style="whiteSpace=wrap;html=1;aspect=fixed;fillColor=#dae8fc;strokeColor=#6c8ebf;" vertex="1" parent="1">
          <mxGeometry x="70" y="270" width="160" height="160" as="geometry" />
        </mxCell>
        <mxCell id="GzDTUK1ZSudhXo1Uk-pZ-7" value="Fetch User Id in Login" style="text;html=1;strokeColor=none;fillColor=none;align=center;verticalAlign=middle;whiteSpace=wrap;rounded=0;" vertex="1" parent="1">
          <mxGeometry x="210" y="160" width="120" height="30" as="geometry" />
        </mxCell>
        <mxCell id="GzDTUK1ZSudhXo1Uk-pZ-8" style="edgeStyle=orthogonalEdgeStyle;rounded=0;orthogonalLoop=1;jettySize=auto;html=1;entryX=0.818;entryY=0.001;entryDx=0;entryDy=0;entryPerimeter=0;" edge="1" parent="1" source="GzDTUK1ZSudhXo1Uk-pZ-1" target="GzDTUK1ZSudhXo1Uk-pZ-4">
          <mxGeometry relative="1" as="geometry">
            <Array as="points">
              <mxPoint x="201" y="160" />
            </Array>
          </mxGeometry>
        </mxCell>
        <mxCell id="GzDTUK1ZSudhXo1Uk-pZ-9" value="Create User In Registration" style="text;html=1;strokeColor=none;fillColor=none;align=center;verticalAlign=middle;whiteSpace=wrap;rounded=0;" vertex="1" parent="1">
          <mxGeometry x="160" y="100" width="120" height="30" as="geometry" />
        </mxCell>
        <mxCell id="GzDTUK1ZSudhXo1Uk-pZ-11" value="Upload/Edit/Delte a Book with Question" style="text;html=1;strokeColor=none;fillColor=none;align=center;verticalAlign=middle;whiteSpace=wrap;rounded=0;" vertex="1" parent="1">
          <mxGeometry x="270" y="313" width="90" height="30" as="geometry" />
        </mxCell>
        <mxCell id="GzDTUK1ZSudhXo1Uk-pZ-12" style="edgeStyle=orthogonalEdgeStyle;rounded=0;orthogonalLoop=1;jettySize=auto;html=1;entryX=1.013;entryY=0.9;entryDx=0;entryDy=0;entryPerimeter=0;" edge="1" parent="1" source="GzDTUK1ZSudhXo1Uk-pZ-2" target="GzDTUK1ZSudhXo1Uk-pZ-4">
          <mxGeometry relative="1" as="geometry">
            <Array as="points">
              <mxPoint x="232" y="410" />
            </Array>
          </mxGeometry>
        </mxCell>
        <mxCell id="GzDTUK1ZSudhXo1Uk-pZ-13" value="Fetch all the Books details" style="text;html=1;strokeColor=none;fillColor=none;align=center;verticalAlign=middle;whiteSpace=wrap;rounded=0;" vertex="1" parent="1">
          <mxGeometry x="280" y="380" width="90" height="30" as="geometry" />
        </mxCell>
        <mxCell id="GzDTUK1ZSudhXo1Uk-pZ-14" style="edgeStyle=orthogonalEdgeStyle;rounded=0;orthogonalLoop=1;jettySize=auto;html=1;entryX=-0.002;entryY=0.826;entryDx=0;entryDy=0;entryPerimeter=0;" edge="1" parent="1" source="GzDTUK1ZSudhXo1Uk-pZ-4" target="GzDTUK1ZSudhXo1Uk-pZ-3">
          <mxGeometry relative="1" as="geometry">
            <Array as="points">
              <mxPoint x="150" y="716" />
            </Array>
          </mxGeometry>
        </mxCell>
        <mxCell id="GzDTUK1ZSudhXo1Uk-pZ-15" value="User Upload/Edit/Delete Reviews" style="text;html=1;strokeColor=none;fillColor=none;align=center;verticalAlign=middle;whiteSpace=wrap;rounded=0;" vertex="1" parent="1">
          <mxGeometry x="210" y="680" width="120" height="30" as="geometry" />
        </mxCell>
        <mxCell id="GzDTUK1ZSudhXo1Uk-pZ-18" value="Get book details" style="text;html=1;strokeColor=none;fillColor=none;align=center;verticalAlign=middle;whiteSpace=wrap;rounded=0;" vertex="1" parent="1">
          <mxGeometry x="350" y="500" width="90" height="30" as="geometry" />
        </mxCell>
        <mxCell id="GzDTUK1ZSudhXo1Uk-pZ-22" value="Get all Reviews avaialble ona book" style="text;html=1;strokeColor=none;fillColor=none;align=center;verticalAlign=middle;whiteSpace=wrap;rounded=0;" vertex="1" parent="1">
          <mxGeometry x="513" y="510" width="90" height="30" as="geometry" />
        </mxCell>
        <mxCell id="GzDTUK1ZSudhXo1Uk-pZ-24" value="Get Reviews of a book" style="text;html=1;strokeColor=none;fillColor=none;align=center;verticalAlign=middle;whiteSpace=wrap;rounded=0;" vertex="1" parent="1">
          <mxGeometry x="210" y="630" width="90" height="30" as="geometry" />
        </mxCell>
        <mxCell id="GzDTUK1ZSudhXo1Uk-pZ-26" value="User Data" style="shape=cylinder3;whiteSpace=wrap;html=1;boundedLbl=1;backgroundOutline=1;size=15;" vertex="1" parent="1">
          <mxGeometry x="740" y="60" width="160" height="150" as="geometry" />
        </mxCell>
        <mxCell id="GzDTUK1ZSudhXo1Uk-pZ-28" style="edgeStyle=orthogonalEdgeStyle;rounded=0;orthogonalLoop=1;jettySize=auto;html=1;entryX=0;entryY=0.5;entryDx=0;entryDy=0;entryPerimeter=0;" edge="1" parent="1" source="GzDTUK1ZSudhXo1Uk-pZ-1" target="GzDTUK1ZSudhXo1Uk-pZ-26">
          <mxGeometry relative="1" as="geometry">
            <Array as="points">
              <mxPoint x="740" y="130" />
            </Array>
          </mxGeometry>
        </mxCell>
        <mxCell id="GzDTUK1ZSudhXo1Uk-pZ-29" value="Books" style="shape=cylinder3;whiteSpace=wrap;html=1;boundedLbl=1;backgroundOutline=1;size=15;" vertex="1" parent="1">
          <mxGeometry x="740" y="294" width="160" height="150" as="geometry" />
        </mxCell>
        <mxCell id="GzDTUK1ZSudhXo1Uk-pZ-30" value="Reviews" style="shape=cylinder3;whiteSpace=wrap;html=1;boundedLbl=1;backgroundOutline=1;size=15;" vertex="1" parent="1">
          <mxGeometry x="740" y="580" width="160" height="150" as="geometry" />
        </mxCell>
        <mxCell id="GzDTUK1ZSudhXo1Uk-pZ-31" style="edgeStyle=orthogonalEdgeStyle;rounded=0;orthogonalLoop=1;jettySize=auto;html=1;entryX=-0.011;entryY=0.379;entryDx=0;entryDy=0;entryPerimeter=0;" edge="1" parent="1" source="GzDTUK1ZSudhXo1Uk-pZ-2" target="GzDTUK1ZSudhXo1Uk-pZ-29">
          <mxGeometry relative="1" as="geometry" />
        </mxCell>
        <mxCell id="GzDTUK1ZSudhXo1Uk-pZ-32" style="edgeStyle=orthogonalEdgeStyle;rounded=0;orthogonalLoop=1;jettySize=auto;html=1;entryX=0.018;entryY=0.595;entryDx=0;entryDy=0;entryPerimeter=0;" edge="1" parent="1" source="GzDTUK1ZSudhXo1Uk-pZ-3" target="GzDTUK1ZSudhXo1Uk-pZ-30">
          <mxGeometry relative="1" as="geometry" />
        </mxCell>
        <mxCell id="GzDTUK1ZSudhXo1Uk-pZ-35" value="&lt;font style=&quot;font-size: 70px;&quot;&gt;Book Reviewing System&lt;br&gt;&lt;/font&gt;" style="text;html=1;strokeColor=none;fillColor=none;align=center;verticalAlign=middle;whiteSpace=wrap;rounded=0;opacity=70;" vertex="1" parent="1">
          <mxGeometry x="370" y="-60" width="1010" height="30" as="geometry" />
        </mxCell>
        <mxCell id="GzDTUK1ZSudhXo1Uk-pZ-46" value="" style="group" vertex="1" connectable="0" parent="1">
          <mxGeometry x="160" y="835" width="380" height="300" as="geometry" />
        </mxCell>
        <mxCell id="GzDTUK1ZSudhXo1Uk-pZ-36" value="User" style="rounded=1;whiteSpace=wrap;html=1;" vertex="1" parent="GzDTUK1ZSudhXo1Uk-pZ-46">
          <mxGeometry x="150" y="110" width="120" height="60" as="geometry" />
        </mxCell>
        <mxCell id="GzDTUK1ZSudhXo1Uk-pZ-37" value="&lt;u&gt;ID&lt;/u&gt;" style="ellipse;whiteSpace=wrap;html=1;" vertex="1" parent="GzDTUK1ZSudhXo1Uk-pZ-46">
          <mxGeometry x="260" y="20" width="120" height="80" as="geometry" />
        </mxCell>
        <mxCell id="GzDTUK1ZSudhXo1Uk-pZ-38" value="User Name" style="ellipse;whiteSpace=wrap;html=1;" vertex="1" parent="GzDTUK1ZSudhXo1Uk-pZ-46">
          <mxGeometry x="60" width="120" height="80" as="geometry" />
        </mxCell>
        <mxCell id="GzDTUK1ZSudhXo1Uk-pZ-39" value="User Email" style="ellipse;whiteSpace=wrap;html=1;" vertex="1" parent="GzDTUK1ZSudhXo1Uk-pZ-46">
          <mxGeometry y="140" width="120" height="80" as="geometry" />
        </mxCell>
        <mxCell id="GzDTUK1ZSudhXo1Uk-pZ-40" value="User Password" style="ellipse;whiteSpace=wrap;html=1;" vertex="1" parent="GzDTUK1ZSudhXo1Uk-pZ-46">
          <mxGeometry x="170" y="220" width="120" height="80" as="geometry" />
        </mxCell>
        <mxCell id="GzDTUK1ZSudhXo1Uk-pZ-42" value="" style="endArrow=none;html=1;rounded=0;exitX=0.75;exitY=0;exitDx=0;exitDy=0;entryX=0.058;entryY=0.763;entryDx=0;entryDy=0;entryPerimeter=0;" edge="1" parent="GzDTUK1ZSudhXo1Uk-pZ-46" source="GzDTUK1ZSudhXo1Uk-pZ-36" target="GzDTUK1ZSudhXo1Uk-pZ-37">
          <mxGeometry width="50" height="50" relative="1" as="geometry">
            <mxPoint x="260" y="180" as="sourcePoint" />
            <mxPoint x="310" y="130" as="targetPoint" />
          </mxGeometry>
        </mxCell>
        <mxCell id="GzDTUK1ZSudhXo1Uk-pZ-43" value="" style="endArrow=none;html=1;rounded=0;exitX=0.667;exitY=1;exitDx=0;exitDy=0;entryX=0.083;entryY=-0.033;entryDx=0;entryDy=0;entryPerimeter=0;exitPerimeter=0;" edge="1" parent="GzDTUK1ZSudhXo1Uk-pZ-46" source="GzDTUK1ZSudhXo1Uk-pZ-38" target="GzDTUK1ZSudhXo1Uk-pZ-36">
          <mxGeometry width="50" height="50" relative="1" as="geometry">
            <mxPoint x="250" y="130" as="sourcePoint" />
            <mxPoint x="277" y="91" as="targetPoint" />
          </mxGeometry>
        </mxCell>
        <mxCell id="GzDTUK1ZSudhXo1Uk-pZ-44" value="" style="endArrow=none;html=1;rounded=0;exitX=0;exitY=0.75;exitDx=0;exitDy=0;entryX=1;entryY=0.5;entryDx=0;entryDy=0;" edge="1" parent="GzDTUK1ZSudhXo1Uk-pZ-46" source="GzDTUK1ZSudhXo1Uk-pZ-36" target="GzDTUK1ZSudhXo1Uk-pZ-39">
          <mxGeometry width="50" height="50" relative="1" as="geometry">
            <mxPoint x="260" y="140" as="sourcePoint" />
            <mxPoint x="287" y="101" as="targetPoint" />
          </mxGeometry>
        </mxCell>
        <mxCell id="GzDTUK1ZSudhXo1Uk-pZ-45" value="" style="endArrow=none;html=1;rounded=0;exitX=0.667;exitY=1.017;exitDx=0;exitDy=0;exitPerimeter=0;" edge="1" parent="GzDTUK1ZSudhXo1Uk-pZ-46" source="GzDTUK1ZSudhXo1Uk-pZ-36" target="GzDTUK1ZSudhXo1Uk-pZ-40">
          <mxGeometry width="50" height="50" relative="1" as="geometry">
            <mxPoint x="270" y="150" as="sourcePoint" />
            <mxPoint x="297" y="111" as="targetPoint" />
          </mxGeometry>
        </mxCell>
        <mxCell id="GzDTUK1ZSudhXo1Uk-pZ-47" value="Create" style="rhombus;whiteSpace=wrap;html=1;" vertex="1" parent="1">
          <mxGeometry x="680" y="945" width="80" height="80" as="geometry" />
        </mxCell>
        <mxCell id="GzDTUK1ZSudhXo1Uk-pZ-48" value="" style="endArrow=none;html=1;rounded=0;entryX=0;entryY=0.5;entryDx=0;entryDy=0;" edge="1" parent="1" target="GzDTUK1ZSudhXo1Uk-pZ-47">
          <mxGeometry width="50" height="50" relative="1" as="geometry">
            <mxPoint x="430" y="975" as="sourcePoint" />
            <mxPoint x="760" y="1065" as="targetPoint" />
          </mxGeometry>
        </mxCell>
        <mxCell id="GzDTUK1ZSudhXo1Uk-pZ-51" value="" style="endArrow=none;html=1;rounded=0;entryX=0;entryY=0.5;entryDx=0;entryDy=0;exitX=1;exitY=0.5;exitDx=0;exitDy=0;" edge="1" parent="1" source="GzDTUK1ZSudhXo1Uk-pZ-47" target="GzDTUK1ZSudhXo1Uk-pZ-49">
          <mxGeometry width="50" height="50" relative="1" as="geometry">
            <mxPoint x="650" y="1045" as="sourcePoint" />
            <mxPoint x="700" y="995" as="targetPoint" />
          </mxGeometry>
        </mxCell>
        <mxCell id="GzDTUK1ZSudhXo1Uk-pZ-62" value="" style="group" vertex="1" connectable="0" parent="1">
          <mxGeometry x="820" y="820" width="410" height="330" as="geometry" />
        </mxCell>
        <mxCell id="GzDTUK1ZSudhXo1Uk-pZ-49" value="Book" style="rounded=1;whiteSpace=wrap;html=1;" vertex="1" parent="GzDTUK1ZSudhXo1Uk-pZ-62">
          <mxGeometry x="110" y="130" width="120" height="60" as="geometry" />
        </mxCell>
        <mxCell id="GzDTUK1ZSudhXo1Uk-pZ-52" value="&lt;u&gt;ID&lt;/u&gt;" style="ellipse;whiteSpace=wrap;html=1;" vertex="1" parent="GzDTUK1ZSudhXo1Uk-pZ-62">
          <mxGeometry y="10" width="120" height="80" as="geometry" />
        </mxCell>
        <mxCell id="GzDTUK1ZSudhXo1Uk-pZ-53" value="BookName" style="ellipse;whiteSpace=wrap;html=1;" vertex="1" parent="GzDTUK1ZSudhXo1Uk-pZ-62">
          <mxGeometry x="190" width="120" height="80" as="geometry" />
        </mxCell>
        <mxCell id="GzDTUK1ZSudhXo1Uk-pZ-54" value="BookAuthor" style="ellipse;whiteSpace=wrap;html=1;" vertex="1" parent="GzDTUK1ZSudhXo1Uk-pZ-62">
          <mxGeometry x="290" y="130" width="120" height="80" as="geometry" />
        </mxCell>
        <mxCell id="GzDTUK1ZSudhXo1Uk-pZ-55" value="BookDescription" style="ellipse;whiteSpace=wrap;html=1;" vertex="1" parent="GzDTUK1ZSudhXo1Uk-pZ-62">
          <mxGeometry x="200" y="250" width="120" height="80" as="geometry" />
        </mxCell>
        <mxCell id="GzDTUK1ZSudhXo1Uk-pZ-56" value="BookPrice" style="ellipse;whiteSpace=wrap;html=1;" vertex="1" parent="GzDTUK1ZSudhXo1Uk-pZ-62">
          <mxGeometry x="20" y="240" width="120" height="80" as="geometry" />
        </mxCell>
        <mxCell id="GzDTUK1ZSudhXo1Uk-pZ-57" value="" style="endArrow=none;html=1;rounded=0;entryX=0.12;entryY=0.007;entryDx=0;entryDy=0;exitX=0.5;exitY=1;exitDx=0;exitDy=0;entryPerimeter=0;" edge="1" parent="GzDTUK1ZSudhXo1Uk-pZ-62" source="GzDTUK1ZSudhXo1Uk-pZ-52" target="GzDTUK1ZSudhXo1Uk-pZ-49">
          <mxGeometry width="50" height="50" relative="1" as="geometry">
            <mxPoint x="-120" y="170" as="sourcePoint" />
            <mxPoint x="120" y="170" as="targetPoint" />
          </mxGeometry>
        </mxCell>
        <mxCell id="GzDTUK1ZSudhXo1Uk-pZ-58" value="" style="endArrow=none;html=1;rounded=0;entryX=0.644;entryY=0.031;entryDx=0;entryDy=0;exitX=0;exitY=1;exitDx=0;exitDy=0;entryPerimeter=0;" edge="1" parent="GzDTUK1ZSudhXo1Uk-pZ-62" source="GzDTUK1ZSudhXo1Uk-pZ-53" target="GzDTUK1ZSudhXo1Uk-pZ-49">
          <mxGeometry width="50" height="50" relative="1" as="geometry">
            <mxPoint x="70" y="100" as="sourcePoint" />
            <mxPoint x="134" y="140" as="targetPoint" />
          </mxGeometry>
        </mxCell>
        <mxCell id="GzDTUK1ZSudhXo1Uk-pZ-59" value="" style="endArrow=none;html=1;rounded=0;entryX=1;entryY=0.25;entryDx=0;entryDy=0;exitX=0;exitY=0.5;exitDx=0;exitDy=0;" edge="1" parent="GzDTUK1ZSudhXo1Uk-pZ-62" source="GzDTUK1ZSudhXo1Uk-pZ-54" target="GzDTUK1ZSudhXo1Uk-pZ-49">
          <mxGeometry width="50" height="50" relative="1" as="geometry">
            <mxPoint x="218" y="78" as="sourcePoint" />
            <mxPoint x="197" y="142" as="targetPoint" />
          </mxGeometry>
        </mxCell>
        <mxCell id="GzDTUK1ZSudhXo1Uk-pZ-60" value="" style="endArrow=none;html=1;rounded=0;entryX=0.75;entryY=1;entryDx=0;entryDy=0;exitX=0.406;exitY=0.041;exitDx=0;exitDy=0;exitPerimeter=0;" edge="1" parent="GzDTUK1ZSudhXo1Uk-pZ-62" source="GzDTUK1ZSudhXo1Uk-pZ-55" target="GzDTUK1ZSudhXo1Uk-pZ-49">
          <mxGeometry width="50" height="50" relative="1" as="geometry">
            <mxPoint x="300" y="180" as="sourcePoint" />
            <mxPoint x="240" y="155" as="targetPoint" />
          </mxGeometry>
        </mxCell>
        <mxCell id="GzDTUK1ZSudhXo1Uk-pZ-61" value="" style="endArrow=none;html=1;rounded=0;entryX=0.25;entryY=1;entryDx=0;entryDy=0;exitX=1;exitY=0;exitDx=0;exitDy=0;" edge="1" parent="GzDTUK1ZSudhXo1Uk-pZ-62" source="GzDTUK1ZSudhXo1Uk-pZ-56" target="GzDTUK1ZSudhXo1Uk-pZ-49">
          <mxGeometry width="50" height="50" relative="1" as="geometry">
            <mxPoint x="287" y="269" as="sourcePoint" />
            <mxPoint x="227" y="205" as="targetPoint" />
          </mxGeometry>
        </mxCell>
        <mxCell id="GzDTUK1ZSudhXo1Uk-pZ-63" value="Review" style="rounded=1;whiteSpace=wrap;html=1;" vertex="1" parent="1">
          <mxGeometry x="490" y="1205" width="120" height="60" as="geometry" />
        </mxCell>
        <mxCell id="GzDTUK1ZSudhXo1Uk-pZ-64" value="Has" style="rhombus;whiteSpace=wrap;html=1;" vertex="1" parent="1">
          <mxGeometry x="680" y="1095" width="80" height="80" as="geometry" />
        </mxCell>
        <mxCell id="GzDTUK1ZSudhXo1Uk-pZ-65" value="" style="endArrow=none;html=1;rounded=0;entryX=0;entryY=0.75;entryDx=0;entryDy=0;exitX=0.5;exitY=0;exitDx=0;exitDy=0;" edge="1" parent="1" source="GzDTUK1ZSudhXo1Uk-pZ-64" target="GzDTUK1ZSudhXo1Uk-pZ-49">
          <mxGeometry width="50" height="50" relative="1" as="geometry">
            <mxPoint x="640" y="1105" as="sourcePoint" />
            <mxPoint x="690" y="1055" as="targetPoint" />
          </mxGeometry>
        </mxCell>
        <mxCell id="GzDTUK1ZSudhXo1Uk-pZ-66" value="" style="endArrow=none;html=1;rounded=0;entryX=0;entryY=1;entryDx=0;entryDy=0;exitX=0.5;exitY=0;exitDx=0;exitDy=0;" edge="1" parent="1" source="GzDTUK1ZSudhXo1Uk-pZ-63" target="GzDTUK1ZSudhXo1Uk-pZ-64">
          <mxGeometry width="50" height="50" relative="1" as="geometry">
            <mxPoint x="730" y="1105" as="sourcePoint" />
            <mxPoint x="940" y="1005" as="targetPoint" />
          </mxGeometry>
        </mxCell>
        <mxCell id="GzDTUK1ZSudhXo1Uk-pZ-67" value="&lt;u&gt;ID&lt;/u&gt;" style="ellipse;whiteSpace=wrap;html=1;" vertex="1" parent="1">
          <mxGeometry x="310" y="1175" width="120" height="80" as="geometry" />
        </mxCell>
        <mxCell id="GzDTUK1ZSudhXo1Uk-pZ-68" value="Description" style="ellipse;whiteSpace=wrap;html=1;" vertex="1" parent="1">
          <mxGeometry x="370" y="1305" width="120" height="80" as="geometry" />
        </mxCell>
        <mxCell id="GzDTUK1ZSudhXo1Uk-pZ-69" value="" style="endArrow=none;html=1;rounded=0;exitX=0;exitY=0.25;exitDx=0;exitDy=0;entryX=0.958;entryY=0.369;entryDx=0;entryDy=0;entryPerimeter=0;" edge="1" parent="1" source="GzDTUK1ZSudhXo1Uk-pZ-63" target="GzDTUK1ZSudhXo1Uk-pZ-67">
          <mxGeometry width="50" height="50" relative="1" as="geometry">
            <mxPoint x="650" y="1145" as="sourcePoint" />
            <mxPoint x="700" y="1095" as="targetPoint" />
          </mxGeometry>
        </mxCell>
        <mxCell id="GzDTUK1ZSudhXo1Uk-pZ-71" value="" style="endArrow=none;html=1;rounded=0;exitX=0.083;exitY=0.971;exitDx=0;exitDy=0;entryX=0.792;entryY=0.087;entryDx=0;entryDy=0;entryPerimeter=0;exitPerimeter=0;" edge="1" parent="1" source="GzDTUK1ZSudhXo1Uk-pZ-63" target="GzDTUK1ZSudhXo1Uk-pZ-68">
          <mxGeometry width="50" height="50" relative="1" as="geometry">
            <mxPoint x="500" y="1230" as="sourcePoint" />
            <mxPoint x="435" y="1215" as="targetPoint" />
          </mxGeometry>
        </mxCell>
        <mxCell id="GzDTUK1ZSudhXo1Uk-pZ-72" value="&lt;ul&gt;&lt;li&gt;&lt;h1 style=&quot;font-size: 24px;&quot;&gt;&lt;font style=&quot;font-size: 24px;&quot;&gt;USER-SERVICE&lt;/font&gt;&lt;/h1&gt;&lt;/li&gt;&lt;li style=&quot;font-size: 24px;&quot;&gt;&lt;font style=&quot;font-size: 24px;&quot;&gt;Handles User Registration&lt;/font&gt;&lt;/li&gt;&lt;li style=&quot;font-size: 24px;&quot;&gt;&lt;font style=&quot;font-size: 24px;&quot;&gt;Handles User Login&lt;/font&gt;&lt;/li&gt;&lt;li style=&quot;font-size: 24px;&quot;&gt;&lt;font style=&quot;font-size: 24px;&quot;&gt;Maintains user activity(not developed)&lt;/font&gt;&lt;/li&gt;&lt;li style=&quot;font-size: 24px;&quot;&gt;&lt;font style=&quot;font-size: 24px;&quot;&gt;Maintain user Profiles (not developed)&lt;br&gt;&lt;/font&gt;&lt;/li&gt;&lt;/ul&gt;" style="text;html=1;strokeColor=none;fillColor=none;spacing=5;spacingTop=-20;whiteSpace=wrap;overflow=hidden;rounded=0;" vertex="1" parent="1">
          <mxGeometry x="1000" y="130" width="580" height="190" as="geometry" />
        </mxCell>
        <mxCell id="GzDTUK1ZSudhXo1Uk-pZ-73" value="&lt;font style=&quot;font-size: 22px;&quot;&gt;Predicted features (reasons for this breakdown of micro-service architecture) with assumptions&lt;br&gt;&lt;/font&gt;" style="text;html=1;strokeColor=none;fillColor=none;align=center;verticalAlign=middle;whiteSpace=wrap;rounded=0;" vertex="1" parent="1">
          <mxGeometry x="980" y="60" width="600" height="30" as="geometry" />
        </mxCell>
        <mxCell id="GzDTUK1ZSudhXo1Uk-pZ-74" value="&lt;ul&gt;&lt;li&gt;&lt;h1 style=&quot;font-size: 24px;&quot;&gt;&lt;font style=&quot;font-size: 24px;&quot;&gt;BOOKs-SERVICE&lt;/font&gt;&lt;/h1&gt;&lt;/li&gt;&lt;li style=&quot;font-size: 24px;&quot;&gt;Allows book upload&lt;br&gt;&lt;/li&gt;&lt;li style=&quot;font-size: 24px;&quot;&gt;Allow to update or delete a book&lt;br&gt;&lt;/li&gt;&lt;li style=&quot;font-size: 24px;&quot;&gt;&lt;font style=&quot;font-size: 24px;&quot;&gt;Maintain availability(not developed)&lt;/font&gt;&lt;/li&gt;&lt;li style=&quot;font-size: 24px;&quot;&gt;&lt;font style=&quot;font-size: 24px;&quot;&gt;Maintain chronologies (not developed)&lt;br&gt;&lt;/font&gt;&lt;/li&gt;&lt;/ul&gt;" style="text;html=1;strokeColor=none;fillColor=none;spacing=5;spacingTop=-20;whiteSpace=wrap;overflow=hidden;rounded=0;" vertex="1" parent="1">
          <mxGeometry x="1000" y="330" width="580" height="190" as="geometry" />
        </mxCell>
        <mxCell id="GzDTUK1ZSudhXo1Uk-pZ-75" value="&lt;ul&gt;&lt;li&gt;&lt;h1 style=&quot;font-size: 24px;&quot;&gt;&lt;font style=&quot;font-size: 24px;&quot;&gt;REVIEW-SERVICE&lt;/font&gt;&lt;/h1&gt;&lt;/li&gt;&lt;li style=&quot;font-size: 24px;&quot;&gt;Allow users to make a review on a uploaded book&lt;br&gt;&lt;/li&gt;&lt;li style=&quot;font-size: 24px;&quot;&gt;Allow make a rating(not developed)&lt;br&gt;&lt;/li&gt;&lt;li style=&quot;font-size: 24px;&quot;&gt;&lt;font style=&quot;font-size: 24px;&quot;&gt;Allow to make reply to the review(not developed)&lt;/font&gt;&lt;/li&gt;&lt;/ul&gt;" style="text;html=1;strokeColor=none;fillColor=none;spacing=5;spacingTop=-20;whiteSpace=wrap;overflow=hidden;rounded=0;" vertex="1" parent="1">
          <mxGeometry x="1000" y="550" width="580" height="160" as="geometry" />
        </mxCell>
        <mxCell id="GzDTUK1ZSudhXo1Uk-pZ-76" value="&lt;div style=&quot;font-size: 20px;&quot; align=&quot;left&quot;&gt;&lt;ul&gt;&lt;li&gt;ID&lt;/li&gt;&lt;li&gt;username&lt;/li&gt;&lt;li&gt;email&lt;/li&gt;&lt;li&gt;password&lt;/li&gt;&lt;/ul&gt;&lt;/div&gt;" style="shape=cylinder3;whiteSpace=wrap;html=1;boundedLbl=1;backgroundOutline=1;size=15;fillColor=#f0a30a;fontColor=#000000;strokeColor=#BD7000;align=left;" vertex="1" parent="1">
          <mxGeometry x="1350" y="770" width="240" height="190" as="geometry" />
        </mxCell>
        <mxCell id="GzDTUK1ZSudhXo1Uk-pZ-77" value="&lt;div align=&quot;left&quot;&gt;&lt;ul&gt;&lt;li&gt;&lt;font style=&quot;font-size: 20px;&quot;&gt;ID&lt;/font&gt;&lt;/li&gt;&lt;li&gt;&lt;font style=&quot;font-size: 20px;&quot;&gt;bookname&lt;/font&gt;&lt;/li&gt;&lt;li&gt;&lt;font style=&quot;font-size: 20px;&quot;&gt;bookauthor&lt;/font&gt;&lt;/li&gt;&lt;li&gt;&lt;font style=&quot;font-size: 20px;&quot;&gt;bookdescription&lt;/font&gt;&lt;/li&gt;&lt;li&gt;&lt;font style=&quot;font-size: 20px;&quot;&gt;bookprice&lt;/font&gt;&lt;/li&gt;&lt;li&gt;&lt;font style=&quot;font-size: 20px;&quot;&gt;userid&lt;/font&gt;&lt;/li&gt;&lt;/ul&gt;&lt;/div&gt;" style="shape=cylinder3;whiteSpace=wrap;html=1;boundedLbl=1;backgroundOutline=1;size=15;fillColor=#f0a30a;fontColor=#000000;strokeColor=#BD7000;align=left;" vertex="1" parent="1">
          <mxGeometry x="1350" y="1010" width="240" height="190" as="geometry" />
        </mxCell>
        <mxCell id="GzDTUK1ZSudhXo1Uk-pZ-78" value="&lt;div align=&quot;left&quot;&gt;&lt;ul&gt;&lt;li&gt;&lt;font style=&quot;font-size: 20px;&quot;&gt;ID&lt;/font&gt;&lt;/li&gt;&lt;li&gt;&lt;font style=&quot;font-size: 20px;&quot;&gt;description&lt;/font&gt;&lt;/li&gt;&lt;li&gt;&lt;font style=&quot;font-size: 20px;&quot;&gt;userid&lt;/font&gt;&lt;/li&gt;&lt;li&gt;&lt;font style=&quot;font-size: 20px;&quot;&gt;bookid&lt;/font&gt;&lt;/li&gt;&lt;/ul&gt;&lt;/div&gt;" style="shape=cylinder3;whiteSpace=wrap;html=1;boundedLbl=1;backgroundOutline=1;size=15;fillColor=#f0a30a;fontColor=#000000;strokeColor=#BD7000;align=left;" vertex="1" parent="1">
          <mxGeometry x="1349" y="1250" width="240" height="190" as="geometry" />
        </mxCell>
        <mxCell id="GzDTUK1ZSudhXo1Uk-pZ-79" value="USER DB" style="text;html=1;strokeColor=none;fillColor=none;align=center;verticalAlign=middle;whiteSpace=wrap;rounded=0;" vertex="1" parent="1">
          <mxGeometry x="1440" y="730" width="60" height="30" as="geometry" />
        </mxCell>
        <mxCell id="GzDTUK1ZSudhXo1Uk-pZ-80" value="BOOK DB" style="text;html=1;strokeColor=none;fillColor=none;align=center;verticalAlign=middle;whiteSpace=wrap;rounded=0;" vertex="1" parent="1">
          <mxGeometry x="1440" y="980" width="60" height="30" as="geometry" />
        </mxCell>
        <mxCell id="GzDTUK1ZSudhXo1Uk-pZ-81" value="REVIEW DB" style="text;html=1;strokeColor=none;fillColor=none;align=center;verticalAlign=middle;whiteSpace=wrap;rounded=0;" vertex="1" parent="1">
          <mxGeometry x="1420" y="1220" width="90" height="30" as="geometry" />
        </mxCell>
      </root>
    </mxGraphModel>
  </diagram>
</mxfile>
